<svg width="45" height="63" viewBox="0 0 45 63" fill="none" xmlns="http://www.w3.org/2000/svg">
<g clip-path="url(#clip0_3101_2)">
<path d="M22.5 62C34.3741 62 44 52.3741 44 40.5C44 28.6259 34.3741 19 22.5 19C10.6259 19 1 28.6259 1 40.5C1 52.3741 10.6259 62 22.5 62Z" stroke="white" stroke-width="2"/>
<path d="M22.2929 41.7071C22.6834 42.0976 23.3166 42.0976 23.7071 41.7071L30.0711 35.3431C30.4616 34.9526 30.4616 34.3195 30.0711 33.9289C29.6805 33.5384 29.0474 33.5384 28.6569 33.9289L23 39.5858L17.3431 33.9289C16.9526 33.5384 16.3195 33.5384 15.9289 33.9289C15.5384 34.3195 15.5384 34.9526 15.9289 35.3431L22.2929 41.7071ZM22 0V41H24V8.74228e-08L22 0Z" fill="white"/>
</g>
<defs>
<clipPath id="clip0_3101_2">
<rect width="45" height="63" fill="white"/>
</clipPath>
</defs>
</svg>
